<?xml version="1.0" encoding="UTF-8"?>
<svg id="Layer_1" xmlns="http://www.w3.org/2000/svg" version="1.1" viewBox="0 0 1024 1024">
  <!-- Generator: Adobe Illustrator 30.2.1, SVG Export Plug-In . SVG Version: 2.1.1 Build 1)  -->
  <defs>
    <style>
      .st0 {
        fill: #b9c6c2;
      }

      .st1 {
        fill: #637c82;
      }

      .st2 {
        fill: #8e2207;
      }

      .st3 {
        fill: #011217;
      }

      .st4 {
        fill: #778e93;
      }

      .st5 {
        fill: #001014;
      }

      .st6 {
        fill: #698086;
      }

      .st7 {
        fill: #922006;
      }

      .st8 {
        fill: #8f2107;
      }

      .st9 {
        fill: #667e82;
      }

      .st10 {
        fill: #fbf5e4;
      }

      .st11 {
        fill: #f35424;
      }

      .st12 {
        fill: #ba3d20;
      }

      .st13 {
        fill: #546c74;
      }

      .st14 {
        fill: #d1340b;
      }

      .st15 {
        fill: #b8c4c2;
      }

      .st16 {
        fill: #5d787e;
      }

      .st17 {
        fill: #8e2107;
      }

      .st18 {
        fill: #fbf5e5;
      }

      .st19 {
        fill: #f55524;
      }

      .st20 {
        fill: #6f898c;
      }

      .st21 {
        fill: #bac6c2;
      }

      .st22 {
        fill: #adc5d0;
      }

      .st23 {
        fill: #b9c4c2;
      }

      .st24 {
        fill: #f55928;
      }

      .st25 {
        fill: #911f06;
      }

      .st26 {
        fill: #647e84;
      }

      .st27 {
        fill: #758e93;
      }

      .st28 {
        fill: #f55624;
      }

      .st29 {
        fill: #d1320a;
      }

      .st30 {
        fill: #6a8286;
      }

      .st31 {
        fill: #bbc8c4;
      }

      .st32 {
        fill: #607a81;
      }

      .st33 {
        fill: #a0adae;
      }

      .st34 {
        fill: #902106;
      }

      .st35 {
        fill: #d3330a;
      }

      .st36 {
        fill: #d2340b;
      }

      .st37 {
        fill: #b7c3bf;
      }

      .st38 {
        fill: #b9c6c3;
      }

      .st39 {
        fill: #fff;
      }

      .st40 {
        fill: #acc4cf;
      }

      .st41 {
        fill: #f35525;
      }

      .st42 {
        fill: #f25424;
      }

      .st43 {
        fill: #8d1f05;
      }

      .st44 {
        fill: #f45726;
      }

      .st45 {
        fill: #f65520;
      }

      .st46 {
        fill: #d2350b;
      }

      .st47 {
        fill: #d2320a;
      }

      .st48 {
        fill: #667d83;
      }

      .st49 {
        fill: #d3320a;
      }

      .st50 {
        fill: #fdf6e5;
      }

      .st51 {
        fill: #5e787f;
      }

      .st52 {
        fill: #748b90;
      }

      .st53 {
        fill: #f9f5e6;
      }

      .st54 {
        fill: #667c7f;
      }

      .st55 {
        fill: #5f777e;
      }

      .st56 {
        fill: #607980;
      }

      .st57 {
        fill: #8f2006;
      }

      .st58 {
        fill: #8c1f06;
      }

      .st59 {
        fill: #6d8488;
      }
    </style>
  </defs>
  <path class="st39" d="M0,0h1024v1024H0V0Z"/>
  <path class="st3" d="M507,88.6c11.1.5,22,3,32.5,6.9,20.9,7.8,38.8,22.3,51.5,40.5,10.8,15.8,17.6,34,19.9,53,1.2,11.6,1.8,23.3,2,35,.7,13.1,1.2,26.3,2,39.4,8.3-.7,17,.3,25.2,1.8,18.7,3.5,36,14.1,48.8,28.1,12,13.6,20.1,30.8,22.2,48.8,1.8,14.9.4,30.7-5.2,44.7-7.3,19.5-21.5,36.2-39.6,46.5-11.9,7.1-26.4,10.7-40.1,12,.8,12.6,1,25.2,1.8,37.8.7,8,.6,16,1.3,24,11.6,2.4,22.9,5,33.6,10.2,10.2,4.9,20.7,10.4,27,20.1,4.7.9,9.2,2.1,13.4,4.5,11.8,6.8,21.5,17.4,24.7,31,16.8,5.6,29.1,20.7,32.3,37.9,5.3.9,10.3,2.3,14.8,5.4,8,5.6,14.3,14.3,19.4,22.6,12.2,20.8,18.9,45.5,21.9,69.4,5.3,48.7-4.4,98.7-28.4,141.5-13.4,23.5-30.6,44.5-51.7,61.5-21.8,18.2-47.4,31.5-75.2,38-15.4,3.5-32.1,5-47.7,2.2-4.6-1-9.9-2.6-13.4-5.9-3.6-3.5-5.2-9.7-2.8-14.3,1.7-3.6,4.7-6,8.2-7.8,10.6-5.2,20.3-12.2,28.6-20.5,7.4-7.8,14.6-17.1,17.1-27.8,1.2-4.6,0-9.5,1-14,2-3.5,5.4-6.1,7.5-9.6,9.4-13.6,10.8-29.4,9.9-45.5-.5-5.1-.9-10.2-2.3-15.1-5.3,8.1-12,15-20.3,20-2,1.5-5.5,2.9-6.5,5.3-1.1,6.3.4,12.5-2.4,18.7-2.5,6-8.4,8.2-12.6,13.5-8.2,10.5-11,24.5-11,37.6-.1,5.1.9,10.2-1.5,14.8-2.2,4.8-7.7,7.5-12.9,6.2-5.7-1.2-10-6.4-13.2-11-9.3-13.5-12.8-28.8-14.3-44.9-10.8,6.8-22.9,11.2-35.4,13.6-29.5,5.2-60.4-2.5-84.2-20.6-1,18.7-4.5,36.6-15.2,52.4-3,4.2-6.6,8.6-11.7,10.1-5,1.9-10.9-.5-13.4-5.2-2.8-4.8-2-11.1-2.2-16.5,0-13.3-3.3-26.3-11.3-37-3.3-4.2-8.6-7.2-11.2-11.8-3.2-6-2.2-12.7-3.1-19.1-.1-1.6-1.2-2.4-2.4-3.3-5.2-3.7-10.4-6.6-14.9-11.1-3.7-3.4-6.5-7.5-9.5-11.5-3,13-3.7,26.7-1.1,39.8,1.6,9.6,5.8,18.6,12.6,25.7,1.3,1.5,3.3,3.2,3.8,5.2.5,4.4-.2,8.8.7,13.2,1.6,8.1,6.7,15.8,11.8,22.2,9,10.5,20,19.4,32.5,25.5,3.8,1.9,7.2,3.9,9.1,7.9,2.7,4.9,1.2,11-2.7,14.8-3.4,3-7.9,4.3-12.2,5.5-7.3,1.5-14.9,1.9-22.3,1.6-34.2-1.4-68.1-15.8-95-36.5-16.7-12.2-30.9-27.1-43.2-43.7-9.1-12.5-17.1-25.5-23.4-39.6-9.1-19.9-15.2-41.2-18.6-62.8-3.6-28.1-3.7-56.2,2.6-84,4.8-19.8,11.7-39.3,23.8-55.9,3.8-5.1,8.1-10,13.2-13.8,4.4-3.3,9.7-4.9,15.1-5.4,3.1-15,12.3-28.3,25.9-35.5,1.8-1,4.5-1.5,6.1-2.8,1.6-3.8,2.5-7.7,4.7-11.3,5.8-9.7,14.7-17.7,25.2-21.9,2.7-1.1,5.7-1.4,8.5-2.4,4.4-6.1,10.1-10.8,16.6-14.6,13.6-7.9,29.3-12.7,44.7-15.4-.1-5,0-10.1-.3-15.1-.7-7-.2-14-.6-21,0-8.4-.9-16.6-.7-24.9.4-1.5-1.8-1.2-2.6-1.5-15.9-1.9-31.2-7.9-44.1-17.5-16.8-12.5-28.9-30.8-33.9-51.1-2.4-11.2-3.5-22.5-1.9-33.8,2.5-21.7,13.4-41.8,29.7-56.3,12.3-11.3,27.6-18.2,43.9-21.3-.3-7.5-.3-15.1-.8-22.6-.1-22.7-2.7-43.4,2.5-66,6.4-30.2,25.9-57.5,52.8-72.7,19.9-11.5,43.9-16.4,66.7-14.7Z"/>
  <path class="st23" d="M530.5,102.4c9.2,2.9,18,7.3,26,12.6-.2,1.7.3,4.3-.8,5.6-1.8,1.6-4,.2-6-.3-11.9-8.9-27-13-41.7-14.5-21.2-2-42.8,1.4-60.9,13.3-13.9,8.5-25,20.7-33.3,34.7-9.8,17.3-13.6,38.4-13.4,58.1.4,17,1.1,34.1,1.6,51.1-2.4,0-4.7,0-7.1,0,0-7.7-.4-15.4-.5-23.2-.4-15.7-1.9-32.4,0-48,2.5-24.4,13-47.8,30.6-65.1,13.6-13.8,31.3-22.7,50.2-26.7,18.1-3.9,37.6-3.3,55.3,2.2Z"/>
  <path class="st1" d="M508,105.9c14.6,1.4,29.7,5.5,41.7,14.5.2.7.4,1.4.6,2.1-1,.9-1.9,2-2.8,3-18.9-12-41.8-15.9-63.7-12.8-30.3,4.1-57.2,25.1-69.1,53.1l-1.6-.2c-5.8,13.7-8.5,28.5-8.1,43.4.1,7.1-.2,14,.2,21.1.6-1.4,1.2-2.9,1.7-4.3,0,2.2.1,4.5.1,6.7-.6,2.5-1.3,4.9-1.2,7.5.1,6.4.1,12.8.7,19.1.4-1.4.9-2.9,1.2-4.3.1,2.8.4,5.6.5,8.4-2.1,0-4.2-.1-6.2-.1-.5-17-1.2-34.1-1.6-51.1-.2-19.7,3.6-40.8,13.4-58.1,8.2-14,19.3-26.2,33.3-34.7,18.1-11.8,39.6-15.2,60.9-13.3Z"/>
  <path class="st55" d="M556.5,115c22.3,15,38.2,38.8,43.3,65.2,2.4,11.3,2.9,23.3,3.4,34.8.9,16.5,1.4,32.9,2.4,49.4-2.1.4-4.2.9-6.3,1.4-1.4-21.3-1.8-42.6-3.3-63.8-.6-10.4-2.5-20.6-5-30.6-1.7-5.9-3.7-12.2-7.1-17.3-2.7-.6-5.7-.4-8.4-.4-7.3-11.2-16.5-21-27.9-28.2.9-1.1,1.7-2.1,2.8-3-.2-.7-.4-1.4-.6-2.1,1.9.5,4.2,1.9,6,.3,1.1-1.4.6-3.9.8-5.6Z"/>
  <path class="st39" d="M520.2,123.9c15.7,3.9,30.1,13,40.5,25.4,12.3,14.9,18.6,33.5,20,52.7.7,9.6.7,19.3,1.2,29,.8,13.4,1,26.8,1.8,40.1-19.8,9-35.9,25-45,44.7-13,28.6-10.6,64.8,8,90.5,1.7,2.6,4.2,5,5.5,7.9.3,5.2-.2,10.6-.3,15.8-.5,25-1.3,50-1.8,75-1.1,43.6-1.9,87.4-3.3,131-.1,8-2.2,15.7-6.2,22.6-3.6,6.6-8.9,11.2-15.8,14.2-11.3,5.1-24.9,2.7-34.2-5.4-8.8-7.3-13.2-19.4-13.9-30.6-2.2-37.9-4.8-75.9-6.8-113.8-1.9-34.1-4.2-68.1-5.8-102.2,13.6-13,23-30.4,26.5-48.8,3.3-18.6,1.6-38.9-6.4-56.2-6.8-15-18.1-28-31.8-37.3-10.4-7.4-22.5-11.5-34.9-14-.1-14.5-1-29-1.3-43.6-.1-6.7-.8-13.3,0-20,1.1-15.6,5.2-30.8,13.9-43.9,10.4-15.9,26.8-27.8,45.1-32.7,14.6-4.2,30.2-4.2,45-.4Z"/>
  <path class="st33" d="M583.9,154c3.4,5.1,5.5,11.4,7.1,17.3-1.3,2.7-2,5.4-2.5,8.4-.2-1-.5-1.9-.7-2.9l-1.5,1.3c-2.8-8.7-5.8-17-10.9-24.6,2.8,0,5.7-.1,8.4.4Z"/>
  <path class="st54" d="M413.1,165.6l1.6.2c-4.6,10.9-7.1,22.3-7.9,34.2-.9,8.7,0,17.1.1,25.8-.5,1.5-1.1,2.9-1.7,4.3-.5-7.1-.1-14-.2-21.1-.4-14.9,2.3-29.7,8.1-43.4Z"/>
  <path class="st37" d="M591,171.4c2.5,10.1,4.5,20.2,5,30.6,1.4,21.2,1.9,42.6,3.3,63.8-2.1.5-4.2,1.2-6.4,1.8-.3-12.9-1.4-25.7-1.6-38.6-1.1-17.6-.2-33.9-4.9-50.8l1.5-1.3c.2.9.5,1.9.7,2.9.5-3,1.2-5.7,2.5-8.4Z"/>
  <path class="st4" d="M407,232.5c.3,7.4.5,14.9.7,22.3-.4,1.5-.8,2.9-1.2,4.3-.5-6.4-.6-12.8-.7-19.1,0-2.6.6-5,1.2-7.5Z"/>
  <path class="st50" d="M421,275.5c16.6,4,32,13.5,42.8,26.8,10.5,12.6,16.7,28.5,18.1,44.8,2,22.9-5.7,46.5-21.7,63.2-17.2,18.4-43.3,27.9-68.3,24.2-18.8-2.3-36.1-11.6-48.9-25.4-11.4-12.3-19.1-28.3-20.7-45.1-2.1-18,1.4-36.5,10.8-52,8.3-13.5,20.4-24.7,34.8-31.3,16.6-7.4,35.5-9.4,53.2-5.2Z"/>
  <path class="st50" d="M649.8,278.4c14,5.4,26.4,14.7,35.4,26.6-1.5,4,2.3,5.9,2.3,10-1.3-.9-2.6-1.8-3.8-2.9-1.3-1.8-2.8-3.4-4.5-4.9,1.1,4,2.7,7.8,3.7,11.8,4.8,17.6,4,36.7-3.5,53.4-10,23.6-32.4,41.5-57.9,44.9-13.6,1.7-27.5-.6-40.2-5.7-4.5-1.7-8.5-4.2-13-6,1.8,4,5.1,5.9,8.3,8.6,4.8,3.8,10,6.8,15.6,9.3.1,1.1.2,2.1.3,3.2-1.2-.2-2.3-.4-3.5-.7-.9.4-1.7.9-2.6,1.3-15.6-7.5-28.6-20-36.7-35.3-7.5-13.7-10.1-29.2-8.9-44.7,1.1-17.7,8.7-34.9,20.5-48,10.5-11.5,24.5-19.9,39.6-23.7,16-4.1,33.3-3.3,48.7,2.5Z"/>
  <path class="st53" d="M685.2,305c9.9,12.6,15.3,28.1,16.2,44,.6,12.9-1,26.1-6.5,37.9-6.6,15.1-17.6,27.8-31.7,36.4-22.6,14.3-52.7,15.9-76.8,4.1.9-.4,1.7-.9,2.6-1.3,1.2.2,2.3.4,3.5.7-.1-1.1-.2-2.1-.3-3.2,13.4,5.8,28.4,7.6,42.8,4.7,30.8-5.5,55.9-32.3,59.8-63.3,1.3-12.1.6-24.2-3-35.8-1.9-6-5-11.7-8.1-17.1,1.2,1,2.5,2,3.8,2.9,0-4.1-3.7-5.9-2.3-10Z"/>
  <path class="st40" d="M679.2,307.2c1.7,1.5,3.1,3.1,4.5,4.9,3.1,5.5,6.2,11.1,8.1,17.1,3.6,11.6,4.4,23.8,3,35.8-3.9,31-29,57.8-59.8,63.3-14.4,2.9-29.3,1.1-42.8-4.7-5.5-2.5-10.8-5.5-15.6-9.3-3.2-2.7-6.5-4.6-8.3-8.6,4.4,1.8,8.5,4.3,13,6,12.6,5,26.6,7.3,40.2,5.7,25.5-3.4,47.9-21.3,57.9-44.9,7.5-16.8,8.3-35.8,3.5-53.4-1-4-2.6-7.8-3.7-11.8Z"/>
  <path class="st22" d="M465,315.8c1.4,1.7,2.7,3.5,3.6,5.5,4.5,9.3,7.3,19.3,7.6,29.7,1.3,25.6-11.6,52.1-33.2,66.2-9.2,6.4-20.1,10.2-31.2,11.8-18.9,2.5-38.5-2.8-53.4-14.6-1.6-1.3-2.8-2.9-3.9-4.5,4.9.9,9,3.3,13.8,4.6,7.8,2.2,15.5,3.8,23.6,3.9,28,.6,55.6-16.3,68.1-41.4,8.5-16.4,10.7-35.7,6.4-53.7-.6-2.5-1.2-5-1.5-7.5Z"/>
  <path class="st5" d="M392.6,319.9c12.7-2.2,26,0,36,8.5,8.2,6.7,14.1,16,15.2,26.6,2.8,16.9-5.9,34.6-20.9,42.9-9.5,4.9-20.5,6.8-30.9,4.1-18.7-4.1-32.8-21.8-32.6-41-.2-19.4,14.2-37.2,33.2-41.1Z"/>
  <path class="st5" d="M609.5,320.6c15.5-4.2,33.4.6,44,13,10.8,12.1,12.9,30.6,6.2,45.2-4.2,9.4-12.2,17.3-21.8,21-8.4,3.5-18,3.9-26.8,2-18.4-4.2-32.3-21.9-31.8-40.8-.7-18.5,12.6-35.5,30.3-40.4Z"/>
  <path class="st18" d="M414.6,336c3.4-.9,7.2.3,9.8,2.5,3.9,3.5,4.5,10.2,1.5,14.5-3.4,5.1-10.7,6.4-15.6,2.5-4.2-3.2-5.3-8.7-3.5-13.6,1.5-3.2,4.2-5.2,7.7-6Z"/>
  <path class="st10" d="M631.5,336.7c4.7-2.1,9.7-.9,13,2.8,3.8,4.5,3.5,11.2-.8,15.2-4.2,4.5-11.8,3.9-15.7-.7-4.8-5.2-3.2-14.5,3.5-17.3Z"/>
  <path class="st32" d="M561.3,422.9c3.9,3.1,7.9,6,12.1,8.8-.2,5.2-.4,10.4-.6,15.6-.2-2.3-.8-4.4-1.5-6.6-1,7-.4,14.3-.6,21.3.1,5.2-.8,9.7,1.3,14.6,0,17.5-.7,35.1-1.3,52.6-.3-3.5-.4-7.1-.9-10.7l-.6-.9c-.6,11.1-.6,22.2-.6,33.3,0,4.7-1.1,9.3-1,14,0,9.3,0,18.7,0,28,0,2,.7,3.8,1.4,5.7.2,3.9,0,7.7-.2,11.5-.2-3-.5-6.1-.8-9.1h-1c-.2,10.3-.1,20.6-.2,30.9-.2,8.9-1.6,17.7-4.1,26.3-1.2,1.2-2.6,2.5-3.5,3.9-.7,2,.4,4-1.4,5.7-1.9,1.8-3.3,2.6-3.8,5.4-3.9,2.1-6.1,5.5-9.2,8.5-2.1,2.1-5.2,2.6-8,3.4-.2,1.2-.4,2.4-.6,3.6-1.5-1.3-3.2-3.3-5.2-3.7-4.2,1.6-7.6,4.1-12.3,4.5-1.5.2-3-1-4.3-1.6,2.3-1,4.6-1.9,6.9-2.8-1.1-.2-2.3-.5-3.4-.7,4.7-.9,9.1-2.3,13.3-4.3,3.3.6,7.1,1.5,10.4.4,3.1-1.2,5.6-4,7.6-6.6,8.8-11.2,13.3-25.9,13.4-40.1.8-38.4,1.7-76.8,2.8-115.2.1,3.8.5,7.7,1.1,11.5,1.3-13,.4-26.2,1.2-39.2.5-7,.3-14,.4-21,0-6,.8-11.6-1-17.5,0-3.1.2-6.3,0-9.5-1.4-2.4-3.8-4.3-5.7-6.3.1-4.6.2-9.2.1-13.8Z"/>
  <path class="st16" d="M455,428.5c.6,11.6,1.7,23.2,1.9,34.8-1.7,4.2-1.3,8.3-1.1,12.7.9,12.4,2,24.8,2.6,37.2.4-1.1.9-2.2,1.3-3.4.5,7.1,1.1,14.3,1.2,21.5-.7,1.9-1.4,3.7-1.4,5.7-.4,11.7,1.6,23.4,2.1,35-.2,6,1.2,12,1,18-.2,5.7,1.1,11.3,1,17-.1,5.4,1,10.6,1,16,0,6.5,1.3,12.9,1.5,19.4-.5,2.8-1.1,5.6-.7,8.4.7,4.1,3.2,8,3.8,12.1.3,2-1.5,4.1-2.5,5.8-.7-1-1.4-1.9-2.2-2.8.9-.4,1.9-.7,2.8-1-.5-4-2.2-7.3-3.2-11.2-2.6-9.5-2.9-20-3.5-29.8-3.2-52.4-6.4-104.7-9.1-157.2-.2-3.5-.2-7.1-1.1-10.5-1.2-1.6-4,.3-5.5.6-.5-7.2-1-14.4-1.4-21.6,4-2,7.6-4.4,11.3-6.8Z"/>
  <path class="st31" d="M561.2,436.7c2,2,4.4,3.9,5.7,6.3.3,3.1,0,6.3,0,9.5-.7,22.1-1.2,44.2-1.7,66.3-1.1,38.4-2,76.8-2.8,115.2,0,14.2-4.6,28.9-13.4,40.1-2,2.5-4.5,5.4-7.6,6.6-3.3,1.1-7,.2-10.4-.4,6.8-3.5,12.8-8.8,16.8-15.3,5.1-8.4,8-18.1,8.4-28,.9-36.6,1.9-73.4,2.5-110,.8-16,.5-32,1.4-48,.2-14.1.6-28.2,1-42.3Z"/>
  <path class="st39" d="M582.4,436.9c4.3,1.7,8.6,3.4,13,4.8.1,11.1,1.2,22.2,1.4,33.4.5,15.4,1.6,30.7,2,46,3.7,71.6,6.3,143.2,9.7,214.8-2.4,2.6-4.6,5.2-6.6,8.1-13,18.2-22,39.3-26.7,61.1-.3,1.2-.5,2.8-1.3,3.7-15.4,16.8-38,26.4-60.9,24.8-12-.9-24.3-4.3-34.6-10.8-13.7-8-24.6-19.9-32-33.9-7.9-16-10.8-33.2-11.5-50.9-2.6-71.1-4.9-142.8-7.3-213.9-.7-27.1-2-54.3-2.5-81.5,3.2-.9,6.4-1.9,9.6-3.2,3.3,54.6,6.2,109.2,9.3,163.8,1,14.2,1.4,28.6,3,42.8,1.9,15.3,8.2,30,18.9,41.2,9.5,9.9,22.5,17.5,36.2,19.3,15.2,2.8,31.5-.8,44.4-9.2,11.7-7.5,20.3-18.9,25.3-31.8,3.8-10,6-20.8,5.8-31.5.9-34.2,1.7-68.8,2.7-103,.6-31.4,1.5-62.9,2.2-94.1Z"/>
  <path class="st48" d="M571.3,440.7c.7,2.2,1.3,4.3,1.5,6.6-.2,9.8-.3,19.6-.8,29.4-2-4.9-1.1-9.5-1.3-14.6.1-7.1-.4-14.4.6-21.3Z"/>
  <path class="st51" d="M415.6,444.2c.6,12.7,1.1,25.5,1.4,38.2-1.7,5.6-.9,10.8-1,16.5,0,5.3-.1,10.6.4,15.9.8,9.5,0,18.8,1.2,28.2.5-2.1.9-4.2,1.2-6.4.9,22.8,1.6,45.8,2.2,68.6-.5,2.2-1.1,4.3-1.2,6.5-.1,12.4.8,24.7.9,37,0,4.1.2,8.2.8,12.2.4-1.4.9-2.9,1.2-4.4.5,11.1.6,22.2,1.1,33.3.3,19.6,1.6,39.1,2.1,58.7-2.4-3.3-4.7-6.8-7.2-10.1,1.1-4.8.2-9.6.1-14.8-.6-20.7-1.6-41.3-2-62-.4-10.3-.9-20.5-1-30.8-.4-10.1-.8-20.1-.9-30.2-1.1-24.3-1.7-48.7-2.4-73-.9-21.3-1.2-42.7-2-64-.1-2.9-.6-3.7-3-5.4-1-.5-2-1.1-2.9-1.6,0,4,0,8.1,0,12.1-.6-7.9-.4-15.9-.7-23.8,3.9-.2,7.8-.4,11.7-1Z"/>
  <path class="st32" d="M604.8,443.7c1,.2,2,.4,3,.5,3,.5,6,.7,9,.9,0,2.4.1,4.8.1,7.2-2.8,8.1-.5,18.2-.3,26.7,0,6.7,1.1,13.3,1.1,20,0,4.9,0,9.8.4,14.7.9,8.3.2,16.7,1,25,.7,6.4,0,12.8.8,19.2.8,6,.4,12,1.1,18,.8,6.1.4,12.2,1,18.3.5-.8,1-1.6,1.6-2.4,1.5,30.4,2.5,60.8,4.2,91.1.4,7-1.3,14.1-1.7,21.2-3.8,3.4-6.5,7.6-9.3,11.9-.2-5.3-.6-10.6-.8-15.9,1.9-2.9,2.5-6.1,3.7-9.3.8-2.2,1.9-4.4,1.9-6.8-1.7-39.5-3.5-77.7-5.2-117-1.9-34.6-3.1-69.4-5-104-.1-2.6-1-3.3-3.1-4.5-1-.4-1.9-.8-2.9-1.2,0,1.5-.1,3.1-.1,4.6-.3-6.1-.5-12.1-.7-18.2Z"/>
  <path class="st13" d="M567,452.5c1.9,5.9,1,11.5,1,17.5,0,7,.1,14-.4,21-.8,13,.1,26.2-1.2,39.2-.6-3.8-1-7.6-1.1-11.5.4-22.1.9-44.2,1.7-66.3Z"/>
  <path class="st30" d="M617,452.3c2.7,46.5,4.5,93,6.8,139.5-.5.8-1,1.6-1.6,2.4-.6-6.1-.2-12.2-1-18.3-.8-6-.3-12-1.1-18-.9-6.4-.1-12.8-.8-19.2-.8-8.3,0-16.7-1-25-.5-4.9-.4-9.8-.4-14.7,0-6.7-1.2-13.3-1.1-20-.2-8.4-2.5-18.6.3-26.7Z"/>
  <path class="st21" d="M450.6,456.4c.9,3.4.9,7,1.1,10.5,2.7,52.4,5.9,104.8,9.1,157.2.6,9.8.9,20.3,3.5,29.8,1,3.9,2.7,7.2,3.2,11.2-1,.3-1.9.6-2.8,1h-1.8c-1.9-3.9-3.7-7.9-4.8-12.2-3.5-13.1-2.9-27.8-4.1-41.4-.6-12.2-1.2-24.3-2.1-36.5-2.2-39.7-4.4-79.4-6.7-119.1,1.5-.3,4.3-2.2,5.5-.6Z"/>
  <path class="st0" d="M404.6,457c1,.5,2,1,2.9,1.6,2.4,1.7,2.8,2.5,3,5.4.8,21.3,1.1,42.7,2,64,.7,24.3,1.3,48.7,2.4,73,.1,10.1.5,20.1.9,30.2.1,10.3.6,20.6,1,30.8.4,20.7,1.4,41.3,2,62,0,5.2,1,10-.1,14.8-2-2.4-4.1-4.8-6.1-7.1,0-15.3-1.2-30.5-1.3-45.7-.7-14.7-.7-29.3-1.6-44-.6-22.3-1-44.7-2-67-.9-35.4-2.1-70.6-3.1-105.9,0-4,0-8.1,0-12.1Z"/>
  <path class="st38" d="M605.7,457.3c1,.4,1.9.8,2.9,1.2,2.1,1.2,3,1.9,3.1,4.5,1.9,34.6,3,69.4,5,104,1.7,39.3,3.5,77.5,5.2,117,0,2.4-1.1,4.6-1.9,6.8-1.2,3.2-1.8,6.4-3.7,9.3-1-24.7-2.2-49.4-3.2-74.2-2.7-54.7-4.8-109.4-7.5-164.1,0-1.5,0-3.1.1-4.6Z"/>
  <path class="st20" d="M456.9,463.3c1,15.5,2,31,2.8,46.5-.4,1.1-.8,2.3-1.3,3.4-.6-12.4-1.7-24.8-2.6-37.2-.2-4.4-.6-8.5,1.1-12.7Z"/>
  <path class="st52" d="M417,482.5c.5,18.1,1.2,36.2,1.8,54.4-.3,2.1-.7,4.3-1.2,6.4-1.2-9.5-.4-18.8-1.2-28.2-.5-5.3-.4-10.6-.4-15.9.1-5.7-.7-11,1-16.5Z"/>
  <path class="st14" d="M396.5,516.4c.3,9,.1,17.9.3,26.9-3,1.2-6,2.5-8.8,4.1,2.4-2.2,5-3.5,8-4.6.3-4.5.4-9,.1-13.5-6.1,2.9-11.9,6.5-17.4,10.4-4.6,3.3-8.1,7.4-12.5,11-5.2-6.3-12.3-10.5-20.2-12.6,14.2-11.7,32.6-18.3,50.5-21.7Z"/>
  <path class="st6" d="M569.2,517.7l.6.9c.5,3.5.6,7.1.9,10.7-.6,23.1-.8,46.3-1.7,69.5-.7-1.9-1.4-3.7-1.4-5.7,0-9.3,0-18.7,0-28,0-4.7,1-9.3,1-14,0-11.1,0-22.2.6-33.3Z"/>
  <path class="st46" d="M629.5,517c11.3,1.7,22.7,5.5,32.9,10.6,5.4,3,11.3,6.1,15.7,10.5-7.6,2.2-14.4,6.2-19.4,12.3-8.5-6.8-17.8-15.3-28.2-19-.2-4.8-.8-9.7-1-14.5Z"/>
  <path class="st8" d="M396,529.2c.3,4.5.2,9-.1,13.5-3,1.1-5.6,2.4-8,4.6-5.6,3.9-10.6,7.9-15.2,13-2.2-3.2-4.2-6.7-6.6-9.6,4.3-3.7,7.9-7.8,12.5-11,5.5-3.9,11.3-7.5,17.4-10.4Z"/>
  <path class="st9" d="M461,531.3c2.4,36.4,4.3,72.8,6.7,109.1l-1.5,2c-.2-6.5-1.5-12.9-1.5-19.4,0-5.4-1.1-10.6-1-16,.2-5.7-1.1-11.3-1-17,.1-6-1.2-12-1-18-.5-11.6-2.4-23.3-2.1-35,0-2,.7-3.8,1.4-5.7Z"/>
  <path class="st2" d="M630.5,531.5c10.4,3.7,19.7,12.1,28.2,19-2.6,3.1-4.8,6.6-6.7,10.2-6-7.2-13-12.2-21.3-16.5,0-4.2,0-8.5-.2-12.7Z"/>
  <path class="st14" d="M343.8,547.6c5.3,1,10.2,4.6,14.1,8.2-.9,4.4-1.2,8.6-3.5,12.6-3.2,5.7-7.4,10.8-12.3,15.2-5.3-4.2-11.1-7.4-17.6-9.3-5.8-1.8-11.5-1.9-17.5-2.8,3.8-9.7,11.6-17.9,21.1-22.1,4.8-2.2,10.5-2.5,15.7-1.8Z"/>
  <path class="st2" d="M701.7,552.3c7.4,4.6,12.8,11.3,16.2,19.3-5.1,1.2-10.2.5-15.3,2-1.1-10.1-7-17.2-13.8-24.2-2.4-3-7.3-1.5-10.5-1.2,8.2-2.5,16.5-.5,23.5,4.2Z"/>
  <path class="st14" d="M678.2,548.1c3.3-.3,8.2-1.9,10.5,1.2,6.8,7,12.8,14.1,13.8,24.2-13,3.2-23.8,11.5-31.6,22.2-5.1-5.4-9.9-10.3-11.3-17.9-1.8-12.9,6.4-25.4,18.5-29.7Z"/>
  <path class="st44" d="M338.3,553c-.7,4.3-5,7.3-8,10.3-2.2,2.1-3.3,2.6-6.4,2.8,1.7-6.9,6.8-13.1,14.4-13.1Z"/>
  <path class="st39" d="M397.7,553.6c.7,12.5.9,25,1.1,37.4.7,10.3.6,20.6,1,31,.9,14.3.5,28.7,1.4,43,.2,8.9.3,17.9.6,26.8.3,5.3.6,10.6.5,15.9-1.7-1.9-4.2-2.8-3.9-5.7-.7-27.2-14.9-52.7-36.3-69.1,1.6-9.6.8-19.5-2.9-28.5,5.5-5.2,10.5-11.6,13.5-18.6,2-4.6,2.6-9.4,2.7-14.3,5.9-7.4,13.5-14,22.2-17.9Z"/>
  <path class="st34" d="M357.9,555.8c6.4,6.5,9.4,16.6,6.4,25.4-2.2,6-6.2,10.1-10.6,14.6-3.4-4.5-7-8.7-11.6-12.2,4.8-4.4,9.1-9.5,12.3-15.2,2.3-4,2.7-8.2,3.5-12.6Z"/>
  <path class="st39" d="M631.4,556.3c7.1,4.2,12.6,9,17.8,15.4-.4,13.2,7.2,24.1,16.2,32.9-3.4,8.9-4.6,18.6-2.9,28.1-11.1,8.3-19.6,19.3-26,31.5-1.8-35.7-3.5-72.2-5.1-107.9Z"/>
  <path class="st24" d="M674,558c-.2,5.3-1.3,10.6-1.9,15.9-1,0-2-.2-3-.2-2-4-2.9-8.3-1.3-12.7,1.2-2.5,3.3-3.9,6.1-3Z"/>
  <path class="st36" d="M314,581.8c7,.8,13.1,3.5,19,7.1,3.7,8.9,4.9,18.4,2.3,27.8-.3.5-1.1.8-2.4.7-11.2-4.6-22.9-6.4-35-6.8-8,0-16,1.4-23.9,3,1.5-10.9,8.1-21.1,17.2-27.3,6.7-4.5,14.8-5.4,22.7-4.5Z"/>
  <path class="st14" d="M716.7,581.5c6.3,9,12.4,17.5,14.3,28.7-4,.2-8,.2-12,.7-11,1.2-21.7,3.8-31.8,8.3-5.4,2.3-10.3,5.3-15.5,8-.5-7.1.6-14.3,3.9-20.7,7.6-15.3,24-25.2,41.1-25Z"/>
  <path class="st7" d="M716.7,581.5c10.2,0,19.5,5.2,25.7,13.1,4.3,5.8,7.8,11.8,8.4,19.1-10.5-2.3-21-3.7-31.8-2.8,4-.4,8-.5,12-.7-1.9-11.2-8-19.7-14.3-28.7Z"/>
  <path class="st11" d="M301.4,587.5c1.9,0,3.2-.7,4.1,1.5-2.1,3.5-5.3,6.4-8.2,9.4-2,1.9-4.2,3.7-7.1,2.4-.7-1.3-1.1-2.5-.6-3.9,1.7-5.1,6.5-8.6,11.8-9.3Z"/>
  <path class="st43" d="M333.1,588.9c12.8,8.2,21.7,22.9,20,38.4-6.8-3.3-12.9-7.4-20.1-9.9,1.2,0,2-.2,2.4-.7,2.6-9.4,1.4-18.8-2.3-27.8Z"/>
  <path class="st45" d="M690.3,598.7c.4,3.6-.6,7.5-1.4,11-.9,0-1.8,0-2.8,0-1.2-3.6-2.1-7,.3-10.4.9-1,2.9-2.3,3.9-.7Z"/>
  <path class="st59" d="M567,601.1h1c.2,3.1.6,6.1.8,9.2-.1,7.3-.4,14.5-.5,21.8-.2,8.7-.9,17.3-3.9,25.6l-1.8.7c2.5-8.6,3.9-17.4,4.1-26.3.1-10.3,0-20.6.2-30.9Z"/>
  <path class="st27" d="M421,605.4c.5,17.1,1.2,34.3,1.8,51.4-.4,1.5-.8,2.9-1.2,4.4-.6-4.1-.7-8.1-.8-12.2-.1-12.4-1.1-24.6-.9-37,0-2.3.6-4.4,1.2-6.5Z"/>
  <path class="st49" d="M263,621.3c4.2-.4,7.7,2.6,12,2.2,5.4-.5,10.5-2.1,16-2.2,8.8-.2,18.2-.5,26.8,1.6,6.3,1.6,12.5,3.6,18.3,6.6,2.1,5.5,5.8,9.3,9.1,14.2,6.7,9.1,13.1,18.9,17.9,29.2,4.6,10.2,8.5,20.6,11.5,31.4,1.9,6.8,4,13.3,5.1,20.3-5.7,2.5-11.2,4.4-16.4,7.9-12.2,7.9-21.3,20.6-25.8,34.4-6,20.6-8.3,43.1-4.4,64.2,3,19.2,10.2,37.9,20.3,54.5,4.8,7.2,10.1,14.3,16.1,20.6,5.6,5.5,11.4,11.1,17.8,15.6,1.9,1.4,4,2.7,5.5,4.5,0,1.7-.4,1.9-1.9,2.3-9.3,1-17.9-.7-26.9-2.7-25.9-6.5-49.4-18.4-71.4-33.4-5.6-3.9-11.4-7.2-17-11-2-1.4-4.2-2.4-6.5-3.3-3.6-3.8-6.9-8-10-12.2-12.8-17.4-23-36.5-30-57-6.2-17.1-9.6-34.8-11.4-52.8-1.5-20.8-1.3-41.1,2.8-61.6,3.5-18,9.4-36.2,19.1-51.9,3.9-6.2,8.3-12.2,13.9-17,2.7-2.3,5.9-4,9.5-4.2Z"/>
  <path class="st47" d="M739.9,621.8c4.9.5,10.9,2.8,15.6.9,2.4,6.9,6.6,12.7,9.6,19.2,5.7,12.2,9.2,24.9,12.1,38.1,5.8,29.6,4.4,59.6-1.4,89-6.4,32.2-20,62.8-39.6,89.2-11.8,16-26,30.2-41.5,42.5-16.6,12.4-35.1,22.5-54.8,29.2-10.7,3.4-21.4,5.6-32.7,4.2,3.2-2.2,6.7-3.9,10.1-5.8,14.5-8.8,27.3-20,36.3-34.5,4.7-7.9,7.9-16.5,7.6-25.8-.5-4.1,2.4-5.4,4.5-8.4,6-7.7,9.8-17.2,11.9-26.6,2.3-12.5,2.3-25.4.1-37.9,0-1,0-2.1,0-3.1,2.6-2.5,5.6-3.6,6.9-7.3,2.4-6.7.7-15.1-1.7-21.6-5.4-15.4-17-28.3-32.8-33.3-8.6-3-17.8-3-26.7-1.2.4-2.8.6-5.5,2-8,2.2-4.1,6-6.8,8.8-10.3,1.9-2.1,2-5.5,2.2-8.1.8-19.2,8.6-37.9,21.8-51.8,8.2-8.4,17.8-14.6,28.2-19.9,16.5-8.2,35.2-11.6,53.5-8.5Z"/>
  <path class="st25" d="M761,621.4c4.7,0,9,3.2,12.4,6.3,7.5,7.3,13.4,16.7,17.9,26.2,5.6,11.5,9.3,24.2,12.1,36.7,3.1,13.6,4.5,27.6,4.4,41.5.1,9.9-.2,19.7-1.4,29.5-3.1,24-9.6,47.8-20,69.7-11.1,22.8-26,44.1-44.3,61.8-20.7,19.4-44.8,34.6-71.9,43.3-12.9,3.9-26.5,6.6-40,6.4-7,0-15-.4-21.5-3.4-2.2-1-1.9-2.5-2.3-4.5l1-.7c11.2,1.3,22-.8,32.7-4.2,19.6-6.8,38.1-16.8,54.8-29.2,15.6-12.3,29.8-26.5,41.5-42.5,19.6-26.3,33.2-57,39.6-89.2,5.8-29.4,7.2-59.4,1.4-89-2.8-13.2-6.4-25.9-12.1-38.1-3-6.6-7.2-12.3-9.6-19.2,1.9-.6,3.5-1.4,5.5-1.3Z"/>
  <path class="st7" d="M336.1,629.5c9.3,4.2,18,10,25.8,16.6,16,14.3,25.6,35.5,26.7,56.9.3,2.1.1,5.1,1.6,6.8,2.6,3.1,5.8,5.4,8.1,8.8,2,3,3.6,6.8,2.8,10.5-2.6,1.6-6.1,1.8-9,2.5-12.3,2.6-23.6,9.2-31.9,18.7-8.1,9-13.2,20.7-14.7,32.7-.6,4.3,2.9,6.9,1.9,11.2-1.6,8.3-2.2,16.4-1.9,24.8.5,13.9,3.7,27.9,12.1,39.2,1.7,2.4,4.3,4.6,5.5,7.3.6,4.4.4,8.7,1.5,13.1,1.5,7.1,5,12.7,8.5,18.9.7,3.5,2.8,6.1,5,8.8-.9.5-1.8,1.1-2.8,1.6-1.2-2.3-1.5-2.7-4-3.7-.6.6-1.2,1.3-1.8,1.9-6-6.3-11.3-13.3-16.1-20.6-10-16.6-17.3-35.3-20.3-54.5-3.9-21.2-1.6-43.7,4.4-64.2,4.5-13.8,13.5-26.5,25.8-34.4,5.2-3.5,10.7-5.3,16.4-7.9-1.1-7-3.2-13.5-5.1-20.3-3-10.8-7-21.2-11.5-31.4-4.8-10.3-11.2-20-17.9-29.2-3.3-4.9-7-8.7-9.1-14.2Z"/>
  <path class="st42" d="M268.1,640.9c-.3,3.7-1.2,7.2-2.5,10.7-4.2,11.6-8,23.4-10.8,35.3-1.9,8.4-3.1,17-4.2,25.5-2.7,23.6-1.4,47.8,4.1,71,1.1,5.9,3.2,11.2,3.5,17.2-3.7-1.9-4.4-6.2-5.9-9.7-5.8-15.1-8.8-30.8-11.1-46.8-3.3-29.2-.2-58.8,10.9-86.1,2.2-5.8,5.1-11.1,9.7-15.3,1.9-1.8,4-1.5,6.4-1.8Z"/>
  <path class="st26" d="M467.6,640.4c.8,6.1,1.9,11.9,4.4,17.5,7.6,17.5,26.6,29.2,45.8,26.6,1.1.2,2.3.4,3.4.7-2.3.9-4.6,1.8-6.9,2.8,1.3.6,2.8,1.8,4.3,1.6,4.7-.4,8.1-2.9,12.3-4.5,2,.4,3.7,2.4,5.2,3.7.2-1.2.4-2.4.6-3.6,2.8-.8,5.9-1.3,8-3.4,3.1-2.9,5.3-6.4,9.2-8.5.5-2.8,1.9-3.6,3.8-5.4,1.8-1.7.7-3.7,1.4-5.7.9-1.5,2.2-2.7,3.5-3.9l1.8-.7c-2.2,7.1-5.7,13.7-10.2,19.6-8.2,10.9-21,18.1-34.4,20.1-11.7,1.4-24.3-.7-34.4-6.8-9.6-5.7-17.7-14.4-22.6-24.5h1.8c.7.8,1.4,1.8,2.2,2.7.9-1.7,2.7-3.8,2.5-5.8-.5-4.1-3.1-8-3.8-12.1-.4-2.8.2-5.7.7-8.4l1.5-2Z"/>
  <path class="st41" d="M686.1,650.1c-3.2,5.1-7.4,9.4-10.7,14.4-4.6,7-8.8,14.2-12.2,21.8-2.2,4.6-3.3,9.5-6,14-.2-2.4-.3-4.7,0-7.1,1.8-11.3,5.6-23.1,12.1-32.7,2.9-4,6.6-8.7,11.2-10.8,2-1,3.6,0,5.6.5Z"/>
  <path class="st17" d="M650.2,729.7c15.8,5,27.4,17.9,32.8,33.3,2.3,6.5,4,14.9,1.7,21.6-1.3,3.7-4.2,4.8-6.9,7.3,0,1-.1,2.1,0,3.1-1.4-4.7,2-8.3,1.1-13.1-2.9-23.1-20.2-43.8-42.9-49.5-4-1.3-9.3-1.1-12.4-4,8.9-1.8,18.1-1.8,26.7,1.2Z"/>
  <path class="st57" d="M405.7,739.1c17.4,19.2,28.1,42.9,33.9,68,2.3,9.8,3.1,19.8,3.7,29.9,0,16.7-2.4,33.2-10.2,48.2-2.3,4-5.1,8.8-9.2,11.3.6-4.8,2.8-8.9,4.1-13.5,5.7-19,5-39.5,2.7-59-3.6-20-11.1-39.4-22.4-56.4-4.1-6.4-9-12.2-14.7-17.3-1.8-1.7-3.8-1.3-6-.7-6.6,2.2-12,7.5-13.9,14.3-2.4,8.3-1.2,16.3.7,24.5-2.1,0-4.2,0-6.3,0-1.6-2.5-3.1-5.3-5-7.6-1.7-2-4-2.9-6.3-4.1,2.2-10.5,9.5-20.4,18-26.8,9.1-6.9,19.6-9.6,30.8-10.8Z"/>
  <path class="st29" d="M622.5,739.5c6.1,1.2,12.5,2.5,18.1,5.2,2.4,5.8,6.9,8.9,8.1,15.3,1,6-1.8,12.8-4.5,18.2-4.4,8.7-11.7,14-17.1,21.8-3.7,5.1-6.6,10.7-7.9,16.9-.7,3.3-2.3,6.2-4.2,9-5.4,8.2-9.3,17.4-11.1,27-2,9.3-1.9,19.5-1.6,29,0,3.7.8,7,2.2,10.5-.2,2,.5,3.6-1.4,5-2,.3-4.1-1.8-5.4-3.2-5.3-6-8.9-13.6-11.3-21.1-5.8-17.5-5.7-37.5-3.5-55.6,3.6-24.3,12.7-48.3,27.5-68.1,2.4-3.2,4.7-6.7,7.7-9.4,1.2-1.3,3-.6,4.5-.5Z"/>
  <path class="st7" d="M640.7,744.8c12.9,5.8,23.2,17.7,26.8,31.3-1.8,2-4.7,2.7-6.3,5-3.8,4.8-6.2,10-10.8,14.3-4.8,4.7-10.9,7.7-15.6,12.4-4.4,4.7-4.3,10.3-4.5,16.3-.2,2.5,0,6.3-2.2,8-2.9,2.8-6.2,5.1-8.8,8.2-5.1,5.6-8.2,12.3-10.5,19.5-3.1,10.7-4.3,21.6-4.3,32.7-1.4-3.5-2.1-6.8-2.2-10.5-.3-9.5-.5-19.7,1.6-29,1.8-9.6,5.7-18.8,11.1-27,1.9-2.8,3.5-5.6,4.2-9,1.4-6.2,4.2-11.8,7.9-16.9,5.5-7.8,12.7-13.2,17.1-21.8,2.7-5.3,5.4-12.1,4.5-18.2-1.1-6.4-5.7-9.5-8.1-15.3Z"/>
  <path class="st35" d="M393.6,750.3c5.7,5,10.6,10.8,14.7,17.3,11.3,17,18.8,36.4,22.4,56.4,2.4,19.5,3,40-2.7,59-1.3,4.6-3.5,8.7-4.1,13.5-.8.5-1.6,1-2.4,1.4-1-1.6-2-2.9-1.9-4.9-.1-7.4.3-14.7-1.1-22-2.3-13.8-7.9-26.8-18.7-36-1.7-1.7-4.8-3.4-5-6-.9-6,.6-12.2-2.3-17.8-2-4.2-6.2-6.5-9.9-9.1-5.7-3.7-10.9-8-14.6-13.8,2.1,0,4.2,0,6.3,0-1.9-8.2-3.2-16.2-.7-24.5,1.9-6.8,7.3-12.1,13.9-14.3,2.1-.6,4.2-1,6,.7Z"/>
  <path class="st28" d="M616,759.9c-.3,1.9-.8,3.6-1.7,5.4-8.8,16.9-15.3,35.1-19.3,53.7-1.8,7.1-2.4,14.4-4.2,21.5-1.4-1.3-1.6-1.5-1.6-3.4-.1-7.2,1.3-14.5,2.4-21.6,3.5-18.6,9.1-36.5,19.4-52.5,1.4-1.8,2.5-3.7,5-3Z"/>
  <path class="st56" d="M450.5,811.7c3.1,2.8,5.8,6,8.9,8.8,12.1,10.5,26.5,18.3,42.3,21.3,2.5,3,4.5,4.2,8.3,5.1,7.5,2,15.4,2.4,23,.9,10.2-1.8,20.2-5.3,29-10.8,3.6-2.2,6.9-4.7,10.3-7.2-.2,3.4-.2,6.8-.2,10.2-6.9,4.5-14,8.6-21.8,11.4-15.7,5.6-32.8,7.1-49.2,3.8-18-3.3-34.7-11.7-48.5-23.6-.2-6.7-1.1-13.3-2-19.9Z"/>
  <path class="st19" d="M697.9,812.1c1.1,2,.9,4.7.9,6.9-.5,8.5-2.1,16.9-4.5,25.1-3.2,12-8.5,23.3-15.8,33.4-1.2,1.7-2.8,2.7-4.6,3.7,1-5,3.8-8.8,5.9-13.4,6.3-13.2,10.8-27.4,13.4-41.8.9-4.4.9-9.2,2.4-13.4.8-.5,1.5-.6,2.2-.5Z"/>
  <path class="st15" d="M572.8,823.3c-.2,2.2-.4,4.4-.5,6.5-3.4,2.5-6.7,5-10.3,7.2-8.8,5.5-18.8,9-29,10.8-7.6,1.5-15.5,1.2-23-.9-3.8-.9-5.8-2.1-8.3-5.1,10.6,2,21.5,2.1,32.1,0,14.5-2.7,27.5-9.4,39-18.5Z"/>
  <path class="st58" d="M269.2,878c2.3.9,4.5,1.9,6.5,3.3,5.5,3.9,11.4,7.2,17,11,22,15,45.5,26.9,71.4,33.4,9,2,17.6,3.7,26.9,2.7,1.6-.4,2-.6,1.9-2.3-1.5-1.8-3.6-3.1-5.5-4.5-6.4-4.5-12.2-10.1-17.8-15.6.6-.6,1.2-1.3,1.8-1.9,2.5,1,2.9,1.3,4,3.7.9-.5,1.8-1.1,2.8-1.6-2.2-2.7-4.3-5.2-5-8.8,5.8,7.6,12.2,14.7,19.5,20.9,7,5.6,14.6,10.3,22.6,14.4,2.1,1.1,4.1,3.4,2,5.6-3.6,2.7-9.1,3.2-13.5,3.9-22.5,2-46.1-3.6-66.6-12.5-19.1-8.4-36.2-20.3-51.7-34.3-5.9-5.7-11.6-10.8-16.3-17.5Z"/>
  <path class="st12" d="M420.4,878.8c.8,5.1,1.2,10.9.3,16h-.3c-.8-5.1-.3-10.8,0-16Z"/>
</svg>